<?xml version="1.0" encoding="UTF-8"?>
<svg version="1.1" viewBox="0 0 2048 2048" width="171" height="171" xmlns="http://www.w3.org/2000/svg">
<path transform="translate(983)" d="m0 0h74l19 3 26 5 29 8 31 11 25 11 19 10 20 12 16 11 13 10 11 9 10 9 15 14 7 7 7 8 12 14 13 18 9 14 12 21 8 16 9-2 21-7 29-6 39-5 16-1h23l27 2 30 4 27 6 36 12 21 9 19 9 18 10 22 14 12 9 14 11 14 12 12 11 10 10 9 11 10 12 13 18 12 19 10 18 11 22 11 27 8 25 7 30 4 25 2 21 1 31-1 25-3 29-4 22-6 22-7 16-1 5 5 2 23 12 21 13 21 16 14 12 12 11 8 8 5 4 7 8 7 7 11 14 10 13 14 22 9 16 9 17 11 25 11 30 9 34 7 36v71l-10 49-7 26-10 28-12 26-7 14-13 22-14 20-16 21-11 12-4 5-8 7-13 13-11 9-9 8-18 13-17 11-17 10-15 8-2 4 7 12 5 19 5 26 3 25 2 35-1 29-3 31-5 25-7 27-12 34-12 26-12 22-15 23-12 16-11 13-18 20-13 13-22 18-18 13-15 10-23 13-23 11-26 10-21 7-29 7-31 5-33 3h-24l-33-3-26-4-25-6-26-8-2-1-3 9-7 14-10 17-12 17-8 11-8 10-12 13-5 5-7 8-8 7-13 12-11 9-15 11-17 11-13 8-22 12-28 12-37 13-36 9-29 5h-66l-36-7-37-10-36-12-27-12-22-12-23-15-16-12-13-11-10-9-8-7-15-15-9-11-10-12-13-18-10-15-11-19-8-15-17 5-22 6-26 5-37 4-12 1h-26l-30-3-27-4-25-6-29-9-27-11-17-8-23-13-17-11-16-12-16-13-16-15-14-14-7-8-12-14-13-18-10-15-10-17-11-21-11-25-12-36-6-26-4-23-3-29v-40l3-32 4-26 6-24 8-20-1-4-23-12-24-15-16-12-11-9-14-12-10-10-7-6-7-8-7-7-11-14-10-13-16-24-9-15-10-19-12-28-11-33-9-35-3-16-1-9v-87l6-26 13-44 11-29 13-27 8-14 14-22 10-14 7-9 8-10 9-10 29-29 8-7 16-13 22-14 13-8 22-12 1-1-1-9-6-17-6-26-4-29-2-20v-44l3-30 4-25 9-34 10-28 9-20 8-16 11-20 14-21 12-16 10-13 13-14 7-8 9-9 11-9 12-10 18-13 15-10 19-11 21-11 24-10 27-9 28-7 33-5 30-3h28l32 3 29 4 26 6 20 8 5-1 10-19 14-23 12-17 11-14 12-14 30-30 8-7 11-9 14-10 17-11 15-9 23-12 20-9 25-9 24-7 38-8zm18 61-27 3-29 6-36 12-18 8-16 8-22 13-17 12-11 9-11 10-8 7-12 12-9 11-10 12-11 15-13 22-9 17-14 31-7 19-1 4-26-13-26-10-24-8-22-5-20-3-22-2h-37l-23 2-31 6-25 7-26 10-21 10-14 8-19 13-12 9-16 13-16 15-13 14-11 14-8 11-12 19-12 22-11 24-9 25-6 25-5 32-2 23v24l3 29 4 23 6 24 10 29 14 30 2 4v5l-27 9-29 13-18 10-19 12-16 12-11 9-15 14-11 11-9 11-10 12-9 12-12 19-10 18-12 27-10 28-5 20-5 32-1 12v46l4 31 7 30 7 21 10 24 10 20 14 23 12 16 8 10 22 24 15 14 16 13 26 17 18 10 23 11 24 9 12 4 1 4-7 16-9 21-8 22-6 22-4 20-3 22-1 12v43l4 31 5 24 7 22 8 22 11 24 12 21 12 17 10 13 11 13 7 8 12 12 11 9 14 11 17 12 19 11 23 12 20 8 27 9 29 6 26 3 15 1h26l36-4 24-5 30-9 21-8 25-12 6-2 12 32 13 28 11 20 14 21 10 13 12 13 11 12 17 16 16 13 20 13 20 12 22 11 26 10 26 8 26 5 25 3h45l27-3 25-5 25-8 28-11 20-10 25-15 16-11 12-10 8-7 13-12 10-10 7-8 13-16 11-16 8-13 15-29 10-25 6-18v-2l8 2 24 11 25 9 26 8 31 6 33 3h29l29-3 31-6 36-12 21-9 21-11 21-13 16-12 13-10 15-14 12-12 9-11 9-12 12-17 12-20 14-29 12-36 6-27 4-29 1-13v-30l-3-33-4-23-5-20-14-40-11-21-2-4v-3l24-8 25-11 21-11 30-19 14-11 14-12 7-7 8-7 9-10 12-14 8-10 13-20 12-21 11-24 12-36 5-24 4-27 1-12v-37l-4-35-6-28-10-30-11-25-9-17-11-18-12-17-11-14-12-13-17-17-11-9-13-10-21-14-17-10-29-14-21-8-14-5-1-4 14-26 9-26 7-23 5-26 3-24 1-19v-12l-2-31-4-31-8-32-11-28-13-27-10-17-12-18-11-14-18-20-9-9-11-9-16-13-23-15-23-13-24-11-28-10-23-6-25-4-20-2h-42l-21 2-26 5-26 7-25 9-18 8-15 8-4-2-6-12-8-20-14-29-13-23-11-16-14-18-11-12-17-17-11-9-17-13-20-13-21-12-25-11-25-9-26-7-25-4-21-2z" fill="#B46B78"/>
<path transform="translate(1679,812)" d="m0 0 16 2 33 6 17 5 21 9 22 12 14 10 10 9 8 7 12 12 9 11 9 13 10 17 11 23 8 24 5 25 1 9v37l-5 28-6 21-9 21-9 17-11 16-14 18-19 19-16 12-18 11-15 8-15 6-23 7-20 4-24 4-10-6-13-13-8-7-105-105v-2l-3-1-3-3v-2l-3-1-7-8-26-26-8-7-7-7-8-7-17-14-2-4 9-7 11-9 15-14 10-10 8-7 4-5 7-6 7-8 3-1 2-4 8-8h2l2-4 119-119 8-7zm21 64-9 7-29 29-7 8-5 4-7 8-59 59-6 5-6 7-7 6-5 5-7 6-1 5 7 7 8 7 96 96 15 16 15 15 9 5 6-1 24-9 17-8 11-7 14-11 16-16 11-14 7-11 10-25 4-18 2-14v-27l-3-19-5-17-9-20-9-15-10-13-10-11-11-9-13-9-23-12-24-9z" fill="#B46B78"/>
<path transform="translate(363,812)" d="m0 0 6 1 8 6 9 8 7 8 17 17 10 9v2h2l7 8 48 48 5 4 6 7 4 3v2h2l5 6 7 6 4 5 8 7 5 6 8 7 26 26 8 7 17 14 4 5-9 8-11 9-12 11-8 7-69 69-1 2h-2l-1 3h-2l-1 3-5 4-7 8-3 3h-2l-2 4-56 56h-2l-2 4-15 15-9 5-9-1-13-2-19-3-22-6-25-11-18-10-12-8-11-9-12-11-11-11-11-14-10-14-14-26-9-24-5-18-4-23-1-25 2-24 6-27 7-20 11-23 11-18 10-14 9-11 10-11 8-7 13-11 27-16 15-7 21-8 17-4 26-5zm-25 64-12 5-18 7-15 8-12 9-10 9-12 12-10 13-9 15-8 17-6 18-3 16-1 22 2 21 4 18 11 26 11 18 12 14 8 9 11 9 14 9 14 8 23 9 9 3h6l10-8 18-18 7-8 8-7 23-23 6-7 57-57 8-7 10-10 1-3-7-8-10-9-91-91-7-8-24-24-9-6z" fill="#B46B78"/>
<path transform="translate(1018,162)" d="m0 0h15l25 2 19 4 21 7 18 8 19 11 14 10 11 9 12 11 9 9 9 11 7 10 8 13 10 19 8 21 6 20 4 21 2 14v7l-4 6-12 11-9 10h-2l-2 4-10 9-4 5h-2v2l-8 7-48 48-4 5-6 5-7 8-14 14h-2l-2 4-50 50-7 8-11 12-5 7-4-1-11-11-7-8-15-16-19-19v-2h-2l-4-5-24-24-3-2v-2h-2l-4-5-8-7-25-25v-2h-2l-5-5-5-6-72-72-2-4v-7l6-34 5-17 7-19 10-21 13-20 10-13 9-10 8-9 11-9 10-8 21-13 25-12 21-7 18-4 16-2zm-11 61-19 3-17 5-19 9-11 7-13 10-18 18-13 18-12 23-10 25 1 6 12 13 117 117 15 16 1 2 5-1 34-34 4-5 7-6 4-5 8-7 30-30 15-16 20-20 8-7 12-12 4-7-1-6-11-28-8-15-9-13-9-11-8-9-11-9-10-7-16-9-18-8-19-5-13-2z" fill="#B46B78"/>
<path transform="translate(1022,1462)" d="m0 0 4 2 5 5 7 9 11 12 8 8 6 7 149 149 17 16 4 5 2 5-3 25-5 25-9 26-10 20-14 21-9 12-12 13-10 10-8 7-13 9-18 11-16 8-21 8-25 6-18 3-10 1h-27l-27-4-19-5-19-7-16-8-18-10-12-9-14-12-16-16-11-14-9-13-8-13-10-22-8-24-5-24-3-21 1-7 7-8 8-8 8-7 20-20 4-5 5-4 7-8 19-19 10-9 7-8 6-5 5-6 7-6 5-6 6-5 7-8 38-38h2l2-4 13-13 7-8 11-12zm0 91-6 4-9 10-15 15-7 8-5 4-7 8-5 4-4 5-2 1v2l-4 2-9 10-5 4-7 8-5 4-7 8-5 4-7 8-5 4-4 5-8 7-16 16-5 7v6l5 11 7 18 8 15 8 12 11 13 6 7 8 7 12 9 14 8 17 8 15 5 14 3 8 1h32l20-4 21-7 23-12 16-12 13-12 7-8 11-15 11-21 6-16 4-9v-6l-7-9-100-100-5-4-1-2h-2l-2-4-16-16-8-10-5-4z" fill="#B46B78"/>
<path transform="translate(543,353)" d="m0 0h41l22 3 22 6 20 8 23 12 19 13 13 10 5 5 3 4 1 8v246l2 32v11l-1 1h-25l-64-1h-210l-8-7-15-20-8-13-6-10-10-23-8-24-5-23-1-8v-37l2-17 7-28 6-16 9-20 11-19 13-17 11-13 10-10 14-11 17-12 25-13 18-7 22-6zm6 61-21 3-17 5-16 7-15 9-11 8-13 12-10 11-12 18-8 16-7 18-4 17-1 8v32l3 19 5 16 6 15 7 14 5 5 4 3 3 1h203l1-195-1-12-7-8-19-10-23-8-16-3-10-1z" fill="#B46B78"/>
<path transform="translate(1465,353)" d="m0 0h41l26 4 19 6 18 7 21 11 22 15 16 13 15 15 12 16 11 18 8 15 10 25 5 18 4 22 1 9v33l-4 24-6 24-10 25-11 21-14 20-10 13-4 3-6 1h-216l-44 1-19 1h-16l-1-1v-10l2-33v-242l-1-7 4-9 11-10 13-9 15-10 14-8 20-9 23-7 22-4zm4 61-19 3-15 4-19 8-16 9-3 3-1 93v116l1 1h150l52-1 9-4 6-7 6-12 7-18 5-23 1-11v-27l-3-18-5-18-9-20-7-12-8-11-9-10-8-8-16-12-17-10-17-7-16-5-19-3z" fill="#B46B78"/>
<path transform="translate(692,1334)" d="m0 0h21l1 2-2 43v249l-3 7-8 8-16 12-13 8-19 10-28 10-27 6-21 3h-34l-27-4-26-7-24-10-17-10-17-12-14-12-10-10-9-11-11-15-10-17-8-17-8-21-6-24-3-21v-32l2-17 6-25 7-20 8-18 11-20 12-16 10-13 5-4h219l40-1zm-239 62-9 1-6 4-10 18-7 17-4 14-3 19v28l3 21 5 17 9 20 8 13 11 14 6 7h2v2l8 7 17 12 17 9 16 6 22 5 19 2h13l18-2 28-7 15-6 13-7 5-6 1-5v-203z" fill="#B46B78"/>
<path transform="translate(1334,1333)" d="m0 0 18 1 21 1 69 1h190l7 4 8 10 11 16 10 17 10 21 8 22 6 28 2 16v31l-3 20-6 25-9 25-10 19-9 14-9 12-13 15-8 8-10 8-15 11-17 10-15 7-17 6-18 5-21 4-15 2h-35l-26-4-22-6-21-8-23-12-14-10-16-12-5-6-2-5v-249l-2-36v-10zm63 63-1 1v201l3 9 9 6 18 8 24 7 16 3 26 1 18-2 24-6 13-5 14-7 15-10 11-9 5-4 9-11 9-12 8-14 8-19 5-21 2-18v-21l-3-21-5-19-10-23-6-9-5-4-2-1z" fill="#B46B78"/>
<path transform="translate(1057,1116)" d="m0 0 6 2 9 7 14 20 14 19 13 18 21 28 11 13 8 10 12 13 14 13 12 9 10 8 7 7 10 18 8 22 5 21 3 25 1 61 1 102-5-2-10-9-7-8-5-6-8-7-69-69-7-8-10-11-12-16-12-20-12-26-3-10v-10l3-19 1-15v-34l-2-23-8-58-4-31-4-15-5-15zm86 195-5 3-1 6 4 18 9 20 7 12 6 7 11 7h2v-8l-4-21-7-20-6-15-5-6-8-3z" fill="#B46B78"/>
<path transform="translate(1114,1060)" d="m0 0 14 1 34 7 67 9 24 3 12 1h32l20-2 8-2h16l17 6 18 8 17 10 17 12 13 11 8 7v2l4 2 29 29v2l3 1v2l4 2 2 4 3 1 3 3v2l4 2 20 20v2l3 1 7 8 15 14 4 6v2l-156-1-22-2-21-4-30-10-17-9-13-13-8-10-12-14-12-13-8-7-11-10-13-10-36-28-41-28-12-9-6-5zm202 77-5 4 1 9 7 8 17 8 28 8 11 2h8l-1-5-4-6-7-6-18-11-12-6-12-4z" fill="#B46B78"/>
<path transform="translate(1232,515)" d="m0 0h3v125l-1 35-3 27-4 20-10 26-9 16-12 11-16 12-12 11-8 8-7 8-8 9-11 14-9 12-14 19-11 14-11 15-8 12-10 13-5 6-3 2-4-1 1-10 4-12 6-43 4-28 4-25 2-21v-42l-4-33 1-10 5-14 10-21 9-15 14-20 11-13 15-16 34-34 8-7 36-36 7-8zm-62 151-7 4-9 12-6 10-10 22-1 7v8l4 7h7l6-4 7-8 11-29 4-20v-8l-1-1z" fill="#B46B78"/>
<path transform="translate(985,1117)" d="m0 0h4l-1 8-6 21-4 27-5 38-5 33-2 30v19l1 16 5 25-2 10-5 13-11 24-8 12-10 14-9 11-9 10-11 12-69 69h-2l-1 3h-2l-2 4-11 11-8 5h-1l1-164 4-26 5-19 8-21 6-11 8-11 12-11 12-9 15-14 13-13 2-3h2l2-4 11-13 12-16 14-19 10-13 15-22 13-18 5-5zm-81 192-10 5-5 4-4 8-10 26-6 25 1 4 1 1h6l6-4 7-8 8-13 5-12 5-10 2-11-1-9-3-6z" fill="#B46B78"/>
<path transform="translate(928,1059)" d="m0 0 3 1-1 5-9 7-15 10-15 11-14 10-17 13-11 9-11 8-14 11-12 11-8 7-12 13-12 14-10 13-9 8-15 8-28 9-25 5-20 2-25 1h-133l2-5 5-6 8-7 7-7 8-7 13-13 7-8 56-56 8-7 13-10 15-10 18-10 27-12 3-1h11l14 3 25 2h32l31-4 61-9 25-4zm-208 79-12 3-14 6-21 12-5 5-5 7 1 3 5 1h8l17-4 23-7 13-7 7-8 1-7-4-3-3-1z" fill="#B46B78"/>
<path transform="translate(810,515)" d="m0 0 4 1 11 9 9 10 11 11 6 5 6 7 8 7 37 37v2h2l3 3v2l3 1 7 8 9 9 11 14 10 15 9 16 11 22 4 12v10l-3 15-2 24v21l2 28 7 49 6 44 5 19 2 3v11l-2 1-8-7-8-10-9-13-14-19-10-14-12-16-10-13-11-14-10-11-7-8-11-12-11-9-18-14-9-9-10-19-9-27-5-24-2-16-1-138zm59 149 2 11 8 31 6 15 5 8 5 4 7 3 6-1 2-10-2-12-12-26-7-11-7-7-9-5z" fill="#B46B78"/>
<path transform="translate(513,811)" d="m0 0 159 1 25 3 27 6 15 5 19 9 10 8 9 11 14 17 12 13 11 11 11 9 20 15 13 10 18 14 22 15 28 20 6 7v2l-12-1-35-7-77-11-22-2h-32l-23 2-14 2h-7l-17-5-19-8-20-11-14-10-10-8-15-14-82-82-8-7-12-12zm150 60-1 3 4 6 5 5 18 12 23 10 10 2h11l2-3v-7l-5-8-11-7-17-6-12-4-18-3z" fill="#B46B78"/>
<path transform="translate(1447,811)" d="m0 0h87l-3 5-9 9-8 7-93 93-14 11-15 10-16 9-27 11-9 3h-15l-19-2-17-1h-26l-31 3-63 9-26 4-20 5h-7l2-5 11-10 18-12 18-13 16-12 14-11 19-14 9-7 14-12 14-14 7-8 9-10 7-9 9-10 10-7 15-7 18-6 23-5 27-3zm-68 60-23 4-20 6-16 7-6 4-3 3-1 8 5 5 3 1 13-1 12-5 20-9 11-7 6-5 5-8v-2z" fill="#B46B78"/>
<path transform="translate(1012,974)" d="m0 0h8l3 2 6-1h9l12 6 10 9 9 12 3 7 1 10-2 2 1 7 1 2v6l-5 9-8 10-11 11-9 5-7 1-5-1-7 2h-8l-10-4-13-11-8-8-8-14 1-9 1-6-2-5v-7l6-9 9-10 10-10 10-5z" fill="#B46B78"/>
</svg>
